HIERARCHY
ROOT Hips
{
	OFFSET -14.64140 90.27770 -84.91600
	CHANNELS 6 Xposition Yposition Zposition Zrotation Xrotation Yrotation
	JOINT Spine
	{
		OFFSET 0.00000 13.20850 -1.60436
		CHANNELS 3 Zrotation Xrotation Yrotation
		JOINT Spine1
		{
			OFFSET 0.00000 8.61716 0.00000
			CHANNELS 3 Zrotation Xrotation Yrotation
			JOINT Spine2
			{
				OFFSET 0.00000 8.61717 0.00000
				CHANNELS 3 Zrotation Xrotation Yrotation
				JOINT Spine3
				{
					OFFSET 0.00000 8.61717 0.00000
					CHANNELS 3 Zrotation Xrotation Yrotation
					JOINT Neck
					{
						OFFSET 0.00000 11.07920 1.10792
						CHANNELS 3 Zrotation Xrotation Yrotation
						JOINT Neck1
						{
							OFFSET 0.00000 7.08032 0.00000
							CHANNELS 3 Zrotation Xrotation Yrotation
							JOINT Head
							{
								OFFSET 0.00000 7.08031 0.00000
								CHANNELS 3 Zrotation Xrotation Yrotation
								End site
								{
									OFFSET 0.00000 0.00000 0.00000
								}
							}
						}
					}
					JOINT RightShoulder
					{
						OFFSET -0.01000 7.91373 5.19711
						CHANNELS 3 Zrotation Xrotation Yrotation
						JOINT RightArm
						{
							OFFSET -18.41580 0.00000 0.00000
							CHANNELS 3 Zrotation Xrotation Yrotation
							JOINT RightForeArm
							{
								OFFSET -29.11090 0.00000 0.00000
								CHANNELS 3 Zrotation Xrotation Yrotation
								JOINT RightHand
								{
									OFFSET -24.65040 0.00000 0.00000
									CHANNELS 3 Zrotation Xrotation Yrotation
									JOINT RightHandThumb1
									{
										OFFSET -5.35114 -0.85590 3.97906
										CHANNELS 3 Zrotation Xrotation Yrotation
										JOINT RightHandThumb2
										{
											OFFSET -4.52789 0.00000 0.00000
											CHANNELS 3 Zrotation Xrotation Yrotation
											JOINT RightHandThumb3
											{
												OFFSET -2.46976 0.00000 0.00000
												CHANNELS 3 Zrotation Xrotation Yrotation
												End site
												{
													OFFSET 0.00000 0.00000 0.00000
												}
											}
										}
									}
									JOINT RightHandIndex1
									{
										OFFSET -14.26970 0.00000 2.88139
										CHANNELS 3 Zrotation Xrotation Yrotation
										JOINT RightHandIndex2
										{
											OFFSET -5.48836 0.00000 0.00000
											CHANNELS 3 Zrotation Xrotation Yrotation
											JOINT RightHandIndex3
											{
												OFFSET -3.01859 0.00000 0.00000
												CHANNELS 3 Zrotation Xrotation Yrotation
												End site
												{
													OFFSET 0.00000 0.00000 0.00000
												}
											}
										}
									}
									JOINT RightHandMiddle1
									{
										OFFSET -14.26970 0.00000 -0.09147
										CHANNELS 3 Zrotation Xrotation Yrotation
										JOINT RightHandMiddle2
										{
											OFFSET -6.17441 0.00000 0.00000
											CHANNELS 3 Zrotation Xrotation Yrotation
											JOINT RightHandMiddle3
											{
												OFFSET -3.56743 0.00000 0.00000
												CHANNELS 3 Zrotation Xrotation Yrotation
												End site
												{
													OFFSET 0.00000 0.00000 0.00000
												}
											}
										}
									}
									JOINT RightHandRing1
									{
										OFFSET -12.69180 0.00000 -3.06433
										CHANNELS 3 Zrotation Xrotation Yrotation
										JOINT RightHandRing2
										{
											OFFSET -5.62556 0.00000 0.00000
											CHANNELS 3 Zrotation Xrotation Yrotation
											JOINT RightHandRing3
											{
												OFFSET -3.56744 0.00000 0.00000
												CHANNELS 3 Zrotation Xrotation Yrotation
												End site
												{
													OFFSET 0.00000 0.00000 0.00000
												}
											}
										}
									}
									JOINT RightHandPinky1
									{
										OFFSET -11.11390 0.00000 -6.03719
										CHANNELS 3 Zrotation Xrotation Yrotation
										JOINT RightHandPinky2
										{
											OFFSET -4.52789 0.00000 0.00000
											CHANNELS 3 Zrotation Xrotation Yrotation
											JOINT RightHandPinky3
											{
												OFFSET -2.46976 0.00000 0.00000
												CHANNELS 3 Zrotation Xrotation Yrotation
												End site
												{
													OFFSET 0.00000 0.00000 0.00000
												}
											}
										}
									}
								}
							}
						}
					}
					JOINT LeftShoulder
					{
						OFFSET 0.01000 7.91373 5.19711
						CHANNELS 3 Zrotation Xrotation Yrotation
						JOINT LeftArm
						{
							OFFSET 18.41580 0.00000 0.00000
							CHANNELS 3 Zrotation Xrotation Yrotation
							JOINT LeftForeArm
							{
								OFFSET 29.11090 0.00000 0.00000
								CHANNELS 3 Zrotation Xrotation Yrotation
								JOINT LeftHand
								{
									OFFSET 24.65040 0.00000 0.00000
									CHANNELS 3 Zrotation Xrotation Yrotation
									JOINT LeftHandThumb1
									{
										OFFSET 5.35114 -0.85590 3.97906
										CHANNELS 3 Zrotation Xrotation Yrotation
										JOINT LeftHandThumb2
										{
											OFFSET 4.52789 0.00000 0.00000
											CHANNELS 3 Zrotation Xrotation Yrotation
											JOINT LeftHandThumb3
											{
												OFFSET 2.46977 0.00000 0.00000
												CHANNELS 3 Zrotation Xrotation Yrotation
												End site
												{
													OFFSET 0.00000 0.00000 0.00000
												}
											}
										}
									}
									JOINT LeftHandIndex1
									{
										OFFSET 14.26970 0.00000 2.88139
										CHANNELS 3 Zrotation Xrotation Yrotation
										JOINT LeftHandIndex2
										{
											OFFSET 5.48836 0.00000 0.00000
											CHANNELS 3 Zrotation Xrotation Yrotation
											JOINT LeftHandIndex3
											{
												OFFSET 3.01859 0.00000 0.00000
												CHANNELS 3 Zrotation Xrotation Yrotation
												End site
												{
													OFFSET 0.00000 0.00000 0.00000
												}
											}
										}
									}
									JOINT LeftHandMiddle1
									{
										OFFSET 14.26970 0.00000 -0.09147
										CHANNELS 3 Zrotation Xrotation Yrotation
										JOINT LeftHandMiddle2
										{
											OFFSET 6.17440 0.00000 0.00000
											CHANNELS 3 Zrotation Xrotation Yrotation
											JOINT LeftHandMiddle3
											{
												OFFSET 3.56744 0.00000 0.00000
												CHANNELS 3 Zrotation Xrotation Yrotation
												End site
												{
													OFFSET 0.00000 0.00000 0.00000
												}
											}
										}
									}
									JOINT LeftHandRing1
									{
										OFFSET 12.69180 0.00000 -3.06433
										CHANNELS 3 Zrotation Xrotation Yrotation
										JOINT LeftHandRing2
										{
											OFFSET 5.62556 0.00000 0.00000
											CHANNELS 3 Zrotation Xrotation Yrotation
											JOINT LeftHandRing3
											{
												OFFSET 3.56744 0.00000 0.00000
												CHANNELS 3 Zrotation Xrotation Yrotation
												End site
												{
													OFFSET 0.00000 0.00000 0.00000
												}
											}
										}
									}
									JOINT LeftHandPinky1
									{
										OFFSET 11.11390 0.00000 -6.03719
										CHANNELS 3 Zrotation Xrotation Yrotation
										JOINT LeftHandPinky2
										{
											OFFSET 4.52789 0.00000 0.00000
											CHANNELS 3 Zrotation Xrotation Yrotation
											JOINT LeftHandPinky3
											{
												OFFSET 2.46976 0.00000 0.00000
												CHANNELS 3 Zrotation Xrotation Yrotation
												End site
												{
													OFFSET 0.00000 0.00000 0.00000
												}
											}
										}
									}
								}
							}
						}
					}
					JOINT pCube4
					{
						OFFSET 0.00000 10.91090 1.10792
						CHANNELS 3 Zrotation Xrotation Yrotation
						End site
						{
							OFFSET 0.00000 0.00000 0.00000
						}
					}
				}
			}
		}
	}
	JOINT RightUpLeg
	{
		OFFSET -9.98441 0.00000 0.00000
		CHANNELS 3 Zrotation Xrotation Yrotation
		JOINT RightLeg
		{
			OFFSET 0.00000 -42.11790 0.00000
			CHANNELS 3 Zrotation Xrotation Yrotation
			JOINT RightFoot
			{
				OFFSET 0.00000 -45.00020 -0.00001
				CHANNELS 3 Zrotation Xrotation Yrotation
				JOINT RightForeFoot
				{
					OFFSET 0.00000 -3.74820 0.00000
					CHANNELS 3 Zrotation Xrotation Yrotation
					JOINT RightToeBase
					{
						OFFSET 0.00000 0.06325 14.43120
						CHANNELS 3 Zrotation Xrotation Yrotation
						End site
						{
							OFFSET 0.00000 0.00000 0.00000
						}
					}
				}
			}
		}
	}
	JOINT LeftUpLeg
	{
		OFFSET 9.98441 0.00000 0.00000
		CHANNELS 3 Zrotation Xrotation Yrotation
		JOINT LeftLeg
		{
			OFFSET 0.00000 -42.11800 0.00000
			CHANNELS 3 Zrotation Xrotation Yrotation
			JOINT LeftFoot
			{
				OFFSET 0.00000 -45.00070 0.00000
				CHANNELS 3 Zrotation Xrotation Yrotation
				JOINT LeftForeFoot
				{
					OFFSET 0.00000 -3.74824 0.00000
					CHANNELS 3 Zrotation Xrotation Yrotation
					JOINT LeftToeBase
					{
						OFFSET 0.00000 0.06325 14.43110
						CHANNELS 3 Zrotation Xrotation Yrotation
						End site
						{
							OFFSET 0.00000 0.00000 0.00000
						}
					}
				}
			}
		}
	}
}
MOTION
Frames: 4
Frame Time: 0.050000
-0.020678242505308808 0.0023674783361170145 -0.045976600467560746 0.023155956672985444 -0.022455677554058362 -0.011903662655035535 -3.4010506913099534 -0.623512247765131 -0.795728899700936 -0.8832790508458745 3.5147554319811443 0.3294558837071997 -1.1718474631050384 -2.0536595664313473 -1.5069057095591647 -0.25386905477788313 0.23609419406970755 -0.8429074749028473 -0.340520749337815 12.145358628065804 0.9971349886502874 0.2800553625549024 0.26118681556496753 1.3532041758329236 -0.02665448351537643 -14.29513775911536 0.1306073221433997 -3.420394823736984 1.4092145845272561 -14.288319161851327 73.14497054522886 26.01702442623629 3.282781908937051 35.309582433319584 6.592989676034379 87.20903060290833 23.19544307925965 -0.30188002046304063 -3.7877866283247426 4.494944980070691 -0.09277585672179234 -1.5574219186718157 -0.009294551632807261 -0.0043165263244456945 -56.22648079925349 -0.028401001996580306 0.013868917248551521 -56.23097352203851 -38.728472664492436 -0.0007274378352642474 -0.04683485337076458 0.01232653089882109 0.021610943700213634 0.014026497685304283 0.02425445348450926 -0.02099404993990192 0.036909934461235444 -36.7182968816678 0.018317303703483858 0.013426311166849732 -0.005283363472068799 -0.04588961798250034 -0.042375743493832774 -0.044913677146971434 0.04588501573955351 0.021502506753118676 -19.72755790257389 0.01878727290715416 -0.02742436514127243 0.03599026458653671 -0.03593012971047143 0.010235257484896256 0.011343750047072693 0.03935520878787746 -0.045263732589410584 24.056279366414767 0.009971912696603193 -0.028824306450540193 28.82742814676176 0.028065584409758027 0.011047107366685158 28.895706668892995 -0.04208993101188628 0.01862313618488316 6.155727699722841 1.4544158161761966 12.435870181237757 -73.57476661432919 25.00654761803662 -8.217293678926456 -92.61617446009959 9.41139707456371 -106.7593326104977 -20.317691840288568 -1.6250376706311436 0.7828101533366757 -0.5153113490049605 0.08250279665624756 -8.151008884351015 0.01119907173652642 -0.014337899175407875 44.55650323389891 -0.01624766888780272 0.0459026113284118 44.51783882121464 12.46964843143604 0.032866141044117746 -0.011449908075206922 -0.03777814935387493 0.017842258455368524 0.002962961051433787 0.028003964397817178 -0.018412706410601675 0.04049717233800961 11.140236122079797 -0.044152100462068584 -0.017648900540063676 0.032960261701785815 0.023816455912951395 -0.006575568410715899 -0.03204992429852451 0.03684614133522321 -0.0029510515461593505 4.8142980327501474 0.031685925181777215 0.006408371550940226 -0.03692684345794494 -0.028626042254829925 -0.04663221514196663 -0.02940919169308678 -0.03021162701869418 -0.04397378022904563 -5.603184636233625 -0.0495544615771934 -0.001439217007191881 -6.703913692778705 -0.008693349948708963 -0.046082803276272635 -6.719366821146587 0.020163483192035852 0.04913231639711279 -0.028162120357196924 0.018355914372249878 -0.03396187513366737 8.040774794619312 3.479504858809075 -19.252666896087803 0.00401569437260031 10.36557784653381 0.041800466595111344 -5.649550004167151 -15.686673923246094 3.215021108263562 0.028323729908261593 -0.04355127207464948 -0.015218559854560663 -0.029299519868188528 4.698653872368866 0.03650503619408819 12.415596116423522 -8.18986385639847 6.849231993030208 0.03813138337786316 46.37311148653691 0.003386618315494124 -4.321386637179592 -14.710169634393289 -3.8831626699301474 -0.026353753913922234 -0.0249154273493598 0.04201271851811827 -0.01147437317073524 -10.695751202617016 0.014605714745137402 
0.022886883931691478 0.01593623196590948 0.018772243534347584 -0.038292660269135054 -0.04224154070382832 0.00752731219645742 -3.3269744471987823 -0.6553328069411662 -0.8418580649974247 -0.9416464590491768 3.507651563181767 0.3179274788936879 -1.2099124799796261 -2.0730519751198435 -1.544916255451368 -0.19665836507108786 0.2617272518156559 -0.8777725936618666 -0.3980149116824703 12.211828472127992 1.1965703546706268 0.2514140258124624 0.3442950550864567 1.70556446978758 -0.06914011045222875 -14.089200535743311 0.11029360159850998 -3.358665691394179 1.4022346588230807 -14.347964786449161 72.68140315604757 25.549555777483565 3.650691151858193 36.12203368948265 5.5018368538175695 90.82873413167013 22.22939327125716 -0.39289575731779236 -3.6528963389932882 4.562453941245181 -0.12296534305553629 -1.5752991537449386 -0.012817465318766694 -0.0010631112597583679 -56.19968686672019 0.018164950254683315 0.04322629601140951 -56.24599713557911 -38.789898754443236 -0.047050092555872544 0.022211067743124487 0.0039054612543940603 -0.020134962200568658 -0.035456674486178084 0.03570434234472165 -0.015532382018921804 0.03297544333954149 -36.720750424777584 -0.011326029245829584 -0.017623411701727983 0.04257333617238501 -0.006997647672111165 0.00931572154288646 0.03595698205625123 0.03976683510297112 -0.01958577027958118 -19.712250317162713 -0.04848066168166386 -0.038897072890261536 -0.008295268012726948 -0.022931700917318675 -0.004854707405443258 0.03680844862743882 -0.0185412074772834 0.034230994058633585 24.056067210626487 0.043229491439781956 0.012355949209192509 28.910579614040074 0.04080656579464764 -0.0491851239302666 28.85025064874395 0.025264304025817898 -0.010137067718230046 6.0324342920964495 1.4000992447170502 12.34844328546774 -73.43780872367557 25.448493496774415 -8.04772146697426 -90.92086385263592 8.924087565015235 -105.67401113281336 -19.106448308675937 -0.7363505469387774 0.15530466705512602 -0.4667102023152454 0.1135969344748174 -8.137706855122198 -0.0016832053453533708 0.04061149297967035 44.56855301757076 0.039948535280626946 0.03528454846044469 44.54549243046588 12.432931167288773 0.022809244514349906 0.027719910367431023 -0.014502272517315378 -0.01846928181107992 -0.0008297717261026415 -0.04203528320617577 -0.046745284716113666 -0.0006531514072790145 11.092281151917224 -0.008349384648218772 -0.04112063975422076 -0.026158539804626447 -0.011572745985983806 0.0022288021721102373 0.03175319346955749 -0.01912553422579626 -0.015825627979372512 4.782173861758749 -0.03581889908435919 -0.016628311738717087 -0.03641874176740265 -0.04466769782279595 0.023163697975052716 0.027697322476459136 0.042945572241566726 -0.005467091448393653 -5.6089664178229315 -0.04268704423673506 -0.040991593227671326 -6.7311210726300725 0.022985776740868498 0.0016143868555321464 -6.729405744529796 0.019681092383453756 0.0015345522547833153 0.010924912359673158 0.03375746827925055 0.007442535573540726 8.001087370493027 3.485773722997403 -19.19497851061155 -0.03525663897877894 10.441820841482743 -0.006417031867594694 -5.608411092331617 -15.624545130032503 3.2374710062159564 0.04448579109422097 -0.009395563576599618 0.04756780875783242 0.03367106027643581 4.686728073002255 -0.001125233015783685 12.430393614001169 -8.243437442736221 6.836812208967033 0.03672298496370292 46.374163554887936 -0.01783716877993563 -4.325199297450605 -14.79178977493095 -3.85693152444331 -0.017958554928203578 0.03350570797753941 -0.022869701943255653 0.001988670877481618 -10.742063181914935 0.002162231279142749 
0.03668729322543866 0.014286959669786251 0.02963068701330074 -0.007924744806711495 -0.0295727510926413 0.041169450736941726 -3.2412922334459298 -0.6697900133469918 -0.8358943140236624 -0.9364501075651537 3.573659020651707 0.34017920754440945 -1.135192109041286 -2.0004950972880646 -1.5075830148801677 -0.19573066800356378 0.33557863423071005 -0.8910347487982868 -0.37593075026656875 12.304730108491485 1.2511428924846386 0.18250292614467933 0.4497749319247792 2.0023617552400594 -0.194537312480614 -13.87260342653936 0.22467937385781173 -3.384110747824456 1.4584830012680348 -14.390989036818217 72.33173483216976 25.323931987230313 3.7959580550600656 35.708024318941185 4.519279343085959 92.91057401968159 21.237888505557468 -0.3100647964046294 -3.6972115207215266 4.514929219065328 -0.17675569410464 -1.5837426516715456 0.03248162895531579 -0.04690094997589496 -56.27026197972878 -0.049718189719701655 -0.044216037435167464 -56.24980575830422 -38.73930746285663 -0.0337914156741335 -0.0012744470930754494 0.012689905222495683 0.033892948702428725 0.01996044080891892 0.018389654003061133 -0.010175578078155386 0.005931300219610421 -36.71824605030864 0.004327698355061397 0.04230567462396862 -0.030119710395762677 0.01634781003888116 -0.02529296699655029 -0.01745417924289476 0.011990269594607606 0.004865039397373919 -19.797724003975247 -0.029629204358679762 0.024343878341726684 0.03280350953843394 -0.027084192417651396 0.049034574207281446 -0.01496093476945106 -0.027352889493022895 0.048691909570192024 24.047674108393032 -0.034231485608539995 -0.025981368453165288 28.891019692214808 0.047677793733767314 0.022861493508676268 28.85712398763108 0.03418945878443417 0.04389902675790988 6.038152839271504 1.4394838946055388 12.462829828593248 -73.00121622258749 25.58824148321181 -7.9916423579346265 -86.41545874224236 8.979280292308797 -103.03988016474239 -17.46805676631266 -0.12412936087300558 -0.2051695898883674 -0.5068988590237397 0.03796583663983472 -8.160744195541646 -0.03173538725154736 -0.003507351673585228 44.55738944437883 0.02800025497814527 0.018696973165459103 44.59161634443686 12.427128191979149 -0.021815877612409624 0.0458790607342534 0.004811389131726884 -0.04933098274738041 -0.005681289995020076 0.011113397643930975 -0.04284561465998878 0.020278444240004165 11.059229988262391 -0.049311924679807974 0.03790270402102857 0.02195137590160662 0.04870421777508578 -0.048737262588177746 -0.038429277482571 -0.025687762207423265 -0.014736162620869223 4.748768069606357 -0.040524347868330146 -0.005445259472574819 0.04284174529252261 0.031831482221463335 0.038260563023598815 0.03976125313182757 -0.048500643227489905 0.026457311162255952 -5.596877361805082 0.017549006834200086 -0.02497292880470351 -6.752806462460704 0.02748078269925202 -0.002813753682643767 -6.6915041969204125 -0.011087175613835569 0.03097582976010703 0.014574085857102057 -0.03458912329947084 0.0232288215341319 8.020007627166883 3.507683341385101 -19.253935221721637 -0.02865118627804953 10.370786848095713 0.05454100212341931 -5.635290425343945 -15.651567110944015 3.1572272391801217 0.011545601105988042 0.018867145671218884 0.02599960086326906 0.0011958217667964318 4.729220571488556 -0.04226578160397595 12.484280101412244 -8.234151787619824 6.905060886081896 -0.03408108040364911 46.34574874844556 -0.02098802725463636 -4.350242990678519 -14.754430579024175 -3.849302958963613 -0.029638489713471602 -0.012728150697314047 0.04075060032069639 0.0006573777612241682 -10.711885618967907 -0.008681260915171322 
-0.010879861228868888 0.029540623904228864 0.010692288273194937 -0.005792447400958538 -0.03786548630747314 0.016706997414837093 -3.248529734464152 -0.6489517875062963 -0.8493780499838031 -0.9824391366044194 3.6241417857919416 0.4085987977008695 -1.1648461734729776 -2.045097103618791 -1.4271207705583577 -0.1702877187671967 0.346055203172718 -0.9102487984921356 -0.4226368953848939 12.443563977868818 1.31683447100144 0.1971435786293233 0.4633934244468979 2.1221059480931226 -0.24423963237075588 -13.872712724702563 0.17413743267782195 -3.406444725990662 1.4231655462809958 -14.590295312637874 71.954117972545 25.70756049424824 3.492480518134646 33.65736710528526 4.132253294787386 92.91473793396757 20.56864888407861 -0.3527037668407065 -3.909273919586867 4.5016631170103185 -0.1721391422135788 -1.6203086651082845 0.03486737601469577 -0.012711032243519752 -56.24824590971907 0.005409859303003927 -0.019765565225751125 -56.2111708323803 -38.78654062148313 0.024863765680372865 0.014719830597772599 0.02326430576857851 0.022626487468896853 -0.009467571636472504 0.006826664478234528 -0.03232628146101716 -0.03749137489934351 -36.73732700870222 -0.02990496929506648 0.013485694290628071 -0.018659694232842507 0.0013378949281144963 0.02041921766734844 -0.042082744442937074 0.047095240215110475 -0.0073095308389812055 -19.727489691721143 0.016612536248386277 -0.022324777414597905 0.006319366681249045 -0.009041965512845918 -0.01851946203940918 0.0453297105097212 -0.0016222730590885071 -0.02161736123027481 24.055319533580946 0.0381521159098481 -0.005248862940340403 28.83241185655588 -0.01874782002476882 -0.005794400267869253 28.881855259700277 0.04168003573058712 -0.006563350465465286 5.968090058785608 1.3668782524636856 12.712816790548889 -72.546557898587 25.725505770384807 -7.644720523445968 -77.65337353721256 9.820004717681112 -97.59934961673805 -15.592471814418836 0.09795718730422917 -0.1303993945576517 -0.5226824100514058 0.06599165946810608 -8.121690976327177 0.04264442057489316 -0.049700230239157095 44.59690570006962 0.033737338537029884 -0.04100914001012938 44.61158351326071 12.446222064326644 -0.032482518771044085 0.026536933696889677 -0.03673683619567 0.045480766744920346 0.00909544688672965 0.046147418627089515 0.028414672774968765 -0.01667212345134678 11.091604470749928 -0.024334082845236905 0.01608750029508502 -0.031828469331718436 0.02362712869692197 0.005409915623261259 0.012149052837781144 0.042273886717872834 -0.03493145281841486 4.783056387909419 0.004302419284765092 -0.02077937187284074 0.04984972833481805 -0.04353575831050857 0.04491065954800625 -0.04272216420842971 -0.009076282103201029 0.010076047019943564 -5.618301337062321 -0.031415038519657046 -0.015405527684498896 -6.746384291662323 0.002826740302021612 -0.041515187610076484 -6.710268469791854 0.020248957565485604 0.04990585450051871 0.0032143631893801696 -0.02600247136416712 -0.0021983538198728056 7.9996101676960505 3.512403494424917 -19.17119918721953 0.044099536267848224 10.361606264383063 0.048176792015576245 -5.644598588625761 -15.61839455609188 3.2346369280818763 -0.010530498650591996 0.036750402380988825 -0.03220801881715813 -0.008129358232197336 4.716217934168874 -0.0018765595590785808 12.429639190482462 -8.217063184391655 6.87008419755853 -0.006052626003057725 46.332902739341044 0.00534568668177368 -4.287778355771171 -14.770303541047866 -3.8440987899929007 0.004015914914116405 0.011358186872213157 -0.01793147305173279 0.039895821533640984 -10.766867134665937 -0.004282721258940409 
